<svg width="18" height="21" viewBox="0 0 18 21" fill="none" xmlns="http://www.w3.org/2000/svg">
<path d="M3.16607 3.10774C4.71849 1.58638 6.80857 0.739127 8.98215 0.750105C11.1557 0.761083 13.2371 1.6294 14.7741 3.16637C16.3111 4.70334 17.1794 6.78476 17.1904 8.95833C17.2014 11.1319 16.3541 13.222 14.8327 14.7744L10.4723 19.1348C10.0816 19.5254 9.55183 19.7448 8.9994 19.7448C8.44698 19.7448 7.91717 19.5254 7.52649 19.1348L3.16607 14.7744C1.61908 13.2273 0.75 11.129 0.75 8.94108C0.75 6.75318 1.61908 4.65489 3.16607 3.10774Z" stroke="black" stroke-width="1.5" stroke-linejoin="round"/>
<path d="M8.99951 12.0662C10.7254 12.0662 12.1245 10.6671 12.1245 8.94116C12.1245 7.21527 10.7254 5.81616 8.99951 5.81616C7.27362 5.81616 5.87451 7.21527 5.87451 8.94116C5.87451 10.6671 7.27362 12.0662 8.99951 12.0662Z" stroke="black" stroke-width="1.5" stroke-linecap="round" stroke-linejoin="round"/>
</svg>
