<svg width="120" height="24" viewBox="0 0 120 24" fill="none" xmlns="http://www.w3.org/2000/svg">
<path d="M10 17.77L16.18 21.5L14.54 14.47L20 9.74L12.81 9.13L10 2.5L7.19 9.13L0 9.74L5.46 14.47L3.82 21.5L10 17.77Z" fill="#D3CC00"/>
<g clip-path="url(#clip0_140_66)">
<path d="M33 17.27L39.18 21L37.54 13.97L43 9.24L35.81 8.63L33 2L30.19 8.63L23 9.24L28.46 13.97L26.82 21L33 17.27Z" fill="#D3CC00"/>
</g>
<g clip-path="url(#clip1_140_66)">
<path d="M58 17.27L64.18 21L62.54 13.97L68 9.24L60.81 8.63L58 2L55.19 8.63L48 9.24L53.46 13.97L51.82 21L58 17.27Z" fill="#D3CC00"/>
</g>
<g clip-path="url(#clip2_140_66)">
<path d="M83 17.27L89.18 21L87.54 13.97L93 9.24L85.81 8.63L83 2L80.19 8.63L73 9.24L78.46 13.97L76.82 21L83 17.27Z" fill="#D3CC00"/>
</g>
<g clip-path="url(#clip3_140_66)">
<path d="M108 17.27L114.18 21L112.54 13.97L118 9.24L110.81 8.63L108 2L105.19 8.63L98 9.24L103.46 13.97L101.82 21L108 17.27Z" fill="#D3CC00"/>
</g>
<defs>
<clipPath id="clip0_140_66">
<rect width="24" height="24" fill="white" transform="translate(21)"/>
</clipPath>
<clipPath id="clip1_140_66">
<rect width="24" height="24" fill="white" transform="translate(46)"/>
</clipPath>
<clipPath id="clip2_140_66">
<rect width="24" height="24" fill="white" transform="translate(71)"/>
</clipPath>
<clipPath id="clip3_140_66">
<rect width="24" height="24" fill="white" transform="translate(96)"/>
</clipPath>
</defs>
</svg>
